<?xml version="1.0" encoding="UTF-8" standalone="no"?>
<!DOCTYPE svg PUBLIC "-//W3C//DTD SVG 1.1//EN"
 "http://www.w3.org/Graphics/SVG/1.1/DTD/svg11.dtd">
<!-- Generated by graphviz version 14.1.3 (20260303.0454)
 -->
<!-- Title: Family_Tree_Demo Pages: 1 -->
<svg width="2016pt" height="872pt"
 viewBox="0.00 0.00 2016.00 872.00" xmlns="http://www.w3.org/2000/svg" xmlns:xlink="http://www.w3.org/1999/xlink">
<g id="graph0" class="graph" transform="scale(0.84971 0.84971) rotate(0) translate(4 1022.4)">
<title>Family_Tree_Demo</title>
<polygon fill="white" stroke="none" points="-4,4 -4,-1022.4 2368.57,-1022.4 2368.57,4 -4,4"/>
<!-- AAA -->
<g id="node1" class="node">
<title>AAA</title>
<path fill="#90caf9" stroke="#2c2c2c" stroke-width="1.5" d="M850.2,-1018.4C850.2,-1018.4 804,-1018.4 804,-1018.4 798,-1018.4 792,-1012.4 792,-1006.4 792,-1006.4 792,-985.85 792,-985.85 792,-979.85 798,-973.85 804,-973.85 804,-973.85 850.2,-973.85 850.2,-973.85 856.2,-973.85 862.2,-979.85 862.2,-985.85 862.2,-985.85 862.2,-1006.4 862.2,-1006.4 862.2,-1012.4 856.2,-1018.4 850.2,-1018.4"/>
<text xml:space="preserve" text-anchor="middle" x="827.1" y="-990.7" font-family="Arial" font-size="14.00" fill="#1a1a1a">AAA</text>
</g>
<!-- DDD -->
<g id="node4" class="node">
<title>DDD</title>
<path fill="#90caf9" stroke="#2c2c2c" stroke-width="1.5" d="M1347.57,-887.85C1347.57,-887.85 1246.62,-887.85 1246.62,-887.85 1240.62,-887.85 1234.62,-881.85 1234.62,-875.85 1234.62,-875.85 1234.62,-839.55 1234.62,-839.55 1234.62,-833.55 1240.62,-827.55 1246.62,-827.55 1246.62,-827.55 1347.57,-827.55 1347.57,-827.55 1353.57,-827.55 1359.57,-833.55 1359.57,-839.55 1359.57,-839.55 1359.57,-875.85 1359.57,-875.85 1359.57,-881.85 1353.57,-887.85 1347.57,-887.85"/>
<text xml:space="preserve" text-anchor="middle" x="1297.1" y="-860.15" font-family="Arial" font-size="14.00" fill="#1a1a1a">DDD</text>
<text xml:space="preserve" text-anchor="middle" x="1297.1" y="-844.4" font-family="Arial" font-size="14.00" fill="#1a1a1a">(WW2 role A)</text>
</g>
<!-- AAA&#45;&gt;DDD -->
<g id="edge1" class="edge">
<title>AAA&#45;&gt;DDD</title>
<path fill="none" stroke="black" d="M862.57,-981.92C939.49,-957.37 1120.58,-904.67 1223.31,-876.82"/>
<polygon fill="black" stroke="black" points="1224.02,-880.25 1232.76,-874.27 1222.19,-873.49 1224.02,-880.25"/>
</g>
<!-- AAA&#45;&gt;DDD -->
<!-- FFF -->
<g id="node6" class="node">
<title>FFF</title>
<path fill="#90caf9" stroke="#2c2c2c" stroke-width="1.5" d="M601.95,-887.85C601.95,-887.85 500.25,-887.85 500.25,-887.85 494.25,-887.85 488.25,-881.85 488.25,-875.85 488.25,-875.85 488.25,-839.55 488.25,-839.55 488.25,-833.55 494.25,-827.55 500.25,-827.55 500.25,-827.55 601.95,-827.55 601.95,-827.55 607.95,-827.55 613.95,-833.55 613.95,-839.55 613.95,-839.55 613.95,-875.85 613.95,-875.85 613.95,-881.85 607.95,-887.85 601.95,-887.85"/>
<text xml:space="preserve" text-anchor="middle" x="551.1" y="-860.15" font-family="Arial" font-size="14.00" fill="#1a1a1a">FFF</text>
<text xml:space="preserve" text-anchor="middle" x="551.1" y="-844.4" font-family="Arial" font-size="14.00" fill="#1a1a1a">(WW2 role B)</text>
</g>
<!-- AAA&#45;&gt;FFF -->
<g id="edge2" class="edge">
<title>AAA&#45;&gt;FFF</title>
<path fill="none" stroke="black" d="M791.3,-977.43C748.55,-956.3 676.02,-920.45 621.83,-893.66"/>
<polygon fill="black" stroke="black" points="623.46,-890.56 612.95,-889.27 620.36,-896.84 623.46,-890.56"/>
</g>
<!-- GGG -->
<g id="node7" class="node">
<title>GGG</title>
<path fill="#90caf9" stroke="#2c2c2c" stroke-width="1.5" d="M433.32,-887.85C433.32,-887.85 330.87,-887.85 330.87,-887.85 324.87,-887.85 318.87,-881.85 318.87,-875.85 318.87,-875.85 318.87,-839.55 318.87,-839.55 318.87,-833.55 324.87,-827.55 330.87,-827.55 330.87,-827.55 433.32,-827.55 433.32,-827.55 439.32,-827.55 445.32,-833.55 445.32,-839.55 445.32,-839.55 445.32,-875.85 445.32,-875.85 445.32,-881.85 439.32,-887.85 433.32,-887.85"/>
<text xml:space="preserve" text-anchor="middle" x="382.1" y="-860.15" font-family="Arial" font-size="14.00" fill="#1a1a1a">GGG</text>
<text xml:space="preserve" text-anchor="middle" x="382.1" y="-844.4" font-family="Arial" font-size="14.00" fill="#1a1a1a">(WW2 role C)</text>
</g>
<!-- AAA&#45;&gt;GGG -->
<g id="edge3" class="edge">
<title>AAA&#45;&gt;GGG</title>
<path fill="none" stroke="black" d="M791.44,-984.19C719.05,-962 553.56,-911.26 456.62,-881.55"/>
<polygon fill="black" stroke="black" points="457.76,-878.23 447.17,-878.65 455.71,-884.93 457.76,-878.23"/>
</g>
<!-- HHH -->
<g id="node8" class="node">
<title>HHH</title>
<path fill="#90caf9" stroke="#2c2c2c" stroke-width="1.5" d="M771.32,-887.85C771.32,-887.85 668.87,-887.85 668.87,-887.85 662.87,-887.85 656.87,-881.85 656.87,-875.85 656.87,-875.85 656.87,-839.55 656.87,-839.55 656.87,-833.55 662.87,-827.55 668.87,-827.55 668.87,-827.55 771.32,-827.55 771.32,-827.55 777.32,-827.55 783.32,-833.55 783.32,-839.55 783.32,-839.55 783.32,-875.85 783.32,-875.85 783.32,-881.85 777.32,-887.85 771.32,-887.85"/>
<text xml:space="preserve" text-anchor="middle" x="720.1" y="-860.15" font-family="Arial" font-size="14.00" fill="#1a1a1a">HHH</text>
<text xml:space="preserve" text-anchor="middle" x="720.1" y="-844.4" font-family="Arial" font-size="14.00" fill="#1a1a1a">(WW2 role C)</text>
</g>
<!-- AAA&#45;&gt;HHH -->
<g id="edge4" class="edge">
<title>AAA&#45;&gt;HHH</title>
<path fill="none" stroke="black" d="M809.91,-973.21C793.81,-952.68 769.4,-921.56 750.1,-896.94"/>
<polygon fill="black" stroke="black" points="753.1,-895.1 744.17,-889.39 747.59,-899.42 753.1,-895.1"/>
</g>
<!-- III -->
<g id="node9" class="node">
<title>III</title>
<path fill="#90caf9" stroke="#2c2c2c" stroke-width="1.5" d="M985.32,-887.85C985.32,-887.85 882.87,-887.85 882.87,-887.85 876.87,-887.85 870.87,-881.85 870.87,-875.85 870.87,-875.85 870.87,-839.55 870.87,-839.55 870.87,-833.55 876.87,-827.55 882.87,-827.55 882.87,-827.55 985.32,-827.55 985.32,-827.55 991.32,-827.55 997.32,-833.55 997.32,-839.55 997.32,-839.55 997.32,-875.85 997.32,-875.85 997.32,-881.85 991.32,-887.85 985.32,-887.85"/>
<text xml:space="preserve" text-anchor="middle" x="934.1" y="-860.15" font-family="Arial" font-size="14.00" fill="#1a1a1a">III</text>
<text xml:space="preserve" text-anchor="middle" x="934.1" y="-844.4" font-family="Arial" font-size="14.00" fill="#1a1a1a">(WW2 role D)</text>
</g>
<!-- AAA&#45;&gt;III -->
<g id="edge5" class="edge">
<title>AAA&#45;&gt;III</title>
<path fill="none" stroke="black" d="M844.29,-973.21C860.39,-952.68 884.8,-921.56 904.1,-896.94"/>
<polygon fill="black" stroke="black" points="906.61,-899.42 910.03,-889.39 901.1,-895.1 906.61,-899.42"/>
</g>
<!-- BBB -->
<g id="node2" class="node">
<title>BBB</title>
<path fill="#f48fb1" stroke="#2c2c2c" stroke-width="1.5" d="M963.2,-1018.4C963.2,-1018.4 917,-1018.4 917,-1018.4 911,-1018.4 905,-1012.4 905,-1006.4 905,-1006.4 905,-985.85 905,-985.85 905,-979.85 911,-973.85 917,-973.85 917,-973.85 963.2,-973.85 963.2,-973.85 969.2,-973.85 975.2,-979.85 975.2,-985.85 975.2,-985.85 975.2,-1006.4 975.2,-1006.4 975.2,-1012.4 969.2,-1018.4 963.2,-1018.4"/>
<text xml:space="preserve" text-anchor="middle" x="940.1" y="-990.7" font-family="Arial" font-size="14.00" fill="#1a1a1a">BBB</text>
</g>
<!-- CCC -->
<g id="node3" class="node">
<title>CCC</title>
<path fill="#f48fb1" stroke="#2c2c2c" stroke-width="1.5" d="M1078.32,-1018.4C1078.32,-1018.4 1029.88,-1018.4 1029.88,-1018.4 1023.87,-1018.4 1017.87,-1012.4 1017.87,-1006.4 1017.87,-1006.4 1017.87,-985.85 1017.87,-985.85 1017.87,-979.85 1023.87,-973.85 1029.88,-973.85 1029.88,-973.85 1078.32,-973.85 1078.32,-973.85 1084.32,-973.85 1090.32,-979.85 1090.32,-985.85 1090.32,-985.85 1090.32,-1006.4 1090.32,-1006.4 1090.32,-1012.4 1084.32,-1018.4 1078.32,-1018.4"/>
<text xml:space="preserve" text-anchor="middle" x="1054.1" y="-990.7" font-family="Arial" font-size="14.00" fill="#1a1a1a">CCC</text>
</g>
<!-- PPP -->
<g id="node16" class="node">
<title>PPP</title>
<path fill="#90caf9" stroke="#2c2c2c" stroke-width="1.5" d="M1678.82,-612.5C1678.82,-612.5 1501.38,-612.5 1501.38,-612.5 1495.38,-612.5 1489.38,-606.5 1489.38,-600.5 1489.38,-600.5 1489.38,-564.2 1489.38,-564.2 1489.38,-558.2 1495.38,-552.2 1501.38,-552.2 1501.38,-552.2 1678.82,-552.2 1678.82,-552.2 1684.82,-552.2 1690.82,-558.2 1690.82,-564.2 1690.82,-564.2 1690.82,-600.5 1690.82,-600.5 1690.82,-606.5 1684.82,-612.5 1678.82,-612.5"/>
<text xml:space="preserve" text-anchor="middle" x="1590.1" y="-584.8" font-family="Arial" font-size="14.00" fill="#1a1a1a">PPP</text>
<text xml:space="preserve" text-anchor="middle" x="1590.1" y="-569.05" font-family="Arial" font-size="14.00" fill="#1a1a1a">(1937&#45;2005, occupation A)</text>
</g>
<!-- DDD&#45;&gt;PPP -->
<!-- m_izzet -->
<g id="node47" class="node">
<title>m_izzet</title>
<path fill="lightgrey" stroke="none" d="M1315.7,-741.55C1315.7,-741.55 1278.5,-741.55 1278.5,-741.55 1272.5,-741.55 1266.5,-735.55 1266.5,-729.55 1266.5,-729.55 1266.5,-710.5 1266.5,-710.5 1266.5,-704.5 1272.5,-698.5 1278.5,-698.5 1278.5,-698.5 1315.7,-698.5 1315.7,-698.5 1321.7,-698.5 1327.7,-704.5 1327.7,-710.5 1327.7,-710.5 1327.7,-729.55 1327.7,-729.55 1327.7,-735.55 1321.7,-741.55 1315.7,-741.55"/>
<text xml:space="preserve" text-anchor="middle" x="1297.1" y="-715.75" font-family="Arial" font-size="12.00" fill="#555555"> — </text>
</g>
<!-- DDD&#45;&gt;m_izzet -->
<g id="edge6" class="edge">
<title>DDD&#45;&gt;m_izzet</title>
<path fill="none" stroke="#777777" d="M1297.1,-826.93C1297.1,-801.03 1297.1,-764.19 1297.1,-741.49"/>
</g>
<!-- EEE -->
<g id="node5" class="node">
<title>EEE</title>
<path fill="#f48fb1" stroke="#2c2c2c" stroke-width="1.5" d="M1179.2,-879.98C1179.2,-879.98 1133,-879.98 1133,-879.98 1127,-879.98 1121,-873.98 1121,-867.98 1121,-867.98 1121,-847.43 1121,-847.43 1121,-841.43 1127,-835.43 1133,-835.43 1133,-835.43 1179.2,-835.43 1179.2,-835.43 1185.2,-835.43 1191.2,-841.43 1191.2,-847.43 1191.2,-847.43 1191.2,-867.98 1191.2,-867.98 1191.2,-873.98 1185.2,-879.98 1179.2,-879.98"/>
<text xml:space="preserve" text-anchor="middle" x="1156.1" y="-852.28" font-family="Arial" font-size="14.00" fill="#1a1a1a">EEE</text>
</g>
<!-- m_nuri -->
<g id="node53" class="node">
<title>m_nuri</title>
<path fill="lightgrey" stroke="none" d="M221.7,-741.55C221.7,-741.55 184.5,-741.55 184.5,-741.55 178.5,-741.55 172.5,-735.55 172.5,-729.55 172.5,-729.55 172.5,-710.5 172.5,-710.5 172.5,-704.5 178.5,-698.5 184.5,-698.5 184.5,-698.5 221.7,-698.5 221.7,-698.5 227.7,-698.5 233.7,-704.5 233.7,-710.5 233.7,-710.5 233.7,-729.55 233.7,-729.55 233.7,-735.55 227.7,-741.55 221.7,-741.55"/>
<text xml:space="preserve" text-anchor="middle" x="203.1" y="-715.75" font-family="Arial" font-size="12.00" fill="#555555"> — </text>
</g>
<!-- FFF&#45;&gt;m_nuri -->
<g id="edge21" class="edge">
<title>FFF&#45;&gt;m_nuri</title>
<path fill="none" stroke="#777777" d="M487.68,-831.97C412.39,-802.62 289.96,-754.89 233.45,-732.86"/>
</g>
<!-- m_adil -->
<g id="node55" class="node">
<title>m_adil</title>
<path fill="lightgrey" stroke="none" d="M845.7,-741.55C845.7,-741.55 808.5,-741.55 808.5,-741.55 802.5,-741.55 796.5,-735.55 796.5,-729.55 796.5,-729.55 796.5,-710.5 796.5,-710.5 796.5,-704.5 802.5,-698.5 808.5,-698.5 808.5,-698.5 845.7,-698.5 845.7,-698.5 851.7,-698.5 857.7,-704.5 857.7,-710.5 857.7,-710.5 857.7,-729.55 857.7,-729.55 857.7,-735.55 851.7,-741.55 845.7,-741.55"/>
<text xml:space="preserve" text-anchor="middle" x="827.1" y="-715.75" font-family="Arial" font-size="12.00" fill="#555555"> — </text>
</g>
<!-- III&#45;&gt;m_adil -->
<g id="edge26" class="edge">
<title>III&#45;&gt;m_adil</title>
<path fill="none" stroke="#777777" d="M910.62,-826.93C890.19,-801.03 861.14,-764.19 843.24,-741.49"/>
</g>
<!-- JJJ -->
<g id="node10" class="node">
<title>JJJ</title>
<path fill="#90caf9" stroke="#2c2c2c" stroke-width="1.5" d="M1997.45,-612.5C1997.45,-612.5 1904.75,-612.5 1904.75,-612.5 1898.75,-612.5 1892.75,-606.5 1892.75,-600.5 1892.75,-600.5 1892.75,-564.2 1892.75,-564.2 1892.75,-558.2 1898.75,-552.2 1904.75,-552.2 1904.75,-552.2 1997.45,-552.2 1997.45,-552.2 2003.45,-552.2 2009.45,-558.2 2009.45,-564.2 2009.45,-564.2 2009.45,-600.5 2009.45,-600.5 2009.45,-606.5 2003.45,-612.5 1997.45,-612.5"/>
<text xml:space="preserve" text-anchor="middle" x="1951.1" y="-584.8" font-family="Arial" font-size="14.00" fill="#1a1a1a">JJJ</text>
<text xml:space="preserve" text-anchor="middle" x="1951.1" y="-569.05" font-family="Arial" font-size="14.00" fill="#1a1a1a">(1927&#45;1990)</text>
</g>
<!-- m_mansur -->
<g id="node48" class="node">
<title>m_mansur</title>
<path fill="lightgrey" stroke="none" d="M1969.7,-741.55C1969.7,-741.55 1932.5,-741.55 1932.5,-741.55 1926.5,-741.55 1920.5,-735.55 1920.5,-729.55 1920.5,-729.55 1920.5,-710.5 1920.5,-710.5 1920.5,-704.5 1926.5,-698.5 1932.5,-698.5 1932.5,-698.5 1969.7,-698.5 1969.7,-698.5 1975.7,-698.5 1981.7,-704.5 1981.7,-710.5 1981.7,-710.5 1981.7,-729.55 1981.7,-729.55 1981.7,-735.55 1975.7,-741.55 1969.7,-741.55"/>
<text xml:space="preserve" text-anchor="middle" x="1951.1" y="-715.75" font-family="Arial" font-size="12.00" fill="#555555"> — </text>
</g>
<!-- JJJ&#45;&gt;m_mansur -->
<g id="edge11" class="edge">
<title>JJJ&#45;&gt;m_mansur</title>
<path fill="none" stroke="#777777" d="M1951.1,-613.11C1951.1,-639.06 1951.1,-676.02 1951.1,-698.71"/>
</g>
<!-- KKK -->
<g id="node11" class="node">
<title>KKK</title>
<path fill="#f48fb1" stroke="#2c2c2c" stroke-width="1.5" d="M1838.07,-612.5C1838.07,-612.5 1746.12,-612.5 1746.12,-612.5 1740.12,-612.5 1734.12,-606.5 1734.12,-600.5 1734.12,-600.5 1734.12,-564.2 1734.12,-564.2 1734.12,-558.2 1740.12,-552.2 1746.12,-552.2 1746.12,-552.2 1838.07,-552.2 1838.07,-552.2 1844.07,-552.2 1850.07,-558.2 1850.07,-564.2 1850.07,-564.2 1850.07,-600.5 1850.07,-600.5 1850.07,-606.5 1844.07,-612.5 1838.07,-612.5"/>
<text xml:space="preserve" text-anchor="middle" x="1792.1" y="-584.8" font-family="Arial" font-size="14.00" fill="#1a1a1a">KKK</text>
<text xml:space="preserve" text-anchor="middle" x="1792.1" y="-569.05" font-family="Arial" font-size="14.00" fill="#1a1a1a">(1927&#45;2011)</text>
</g>
<!-- LLL -->
<g id="node12" class="node">
<title>LLL</title>
<path fill="#90caf9" stroke="#2c2c2c" stroke-width="1.5" d="M1453.95,-466.2C1453.95,-466.2 1412.25,-466.2 1412.25,-466.2 1406.25,-466.2 1400.25,-460.2 1400.25,-454.2 1400.25,-454.2 1400.25,-433.65 1400.25,-433.65 1400.25,-427.65 1406.25,-421.65 1412.25,-421.65 1412.25,-421.65 1453.95,-421.65 1453.95,-421.65 1459.95,-421.65 1465.95,-427.65 1465.95,-433.65 1465.95,-433.65 1465.95,-454.2 1465.95,-454.2 1465.95,-460.2 1459.95,-466.2 1453.95,-466.2"/>
<text xml:space="preserve" text-anchor="middle" x="1433.1" y="-438.5" font-family="Arial" font-size="14.00" fill="#1a1a1a">LLL</text>
</g>
<!-- MMM -->
<g id="node13" class="node">
<title>MMM</title>
<path fill="#90caf9" stroke="#2c2c2c" stroke-width="1.5" d="M1449.7,-327.77C1449.7,-327.77 1394.5,-327.77 1394.5,-327.77 1388.5,-327.77 1382.5,-321.77 1382.5,-315.77 1382.5,-315.77 1382.5,-295.23 1382.5,-295.23 1382.5,-289.23 1388.5,-283.23 1394.5,-283.23 1394.5,-283.23 1449.7,-283.23 1449.7,-283.23 1455.7,-283.23 1461.7,-289.23 1461.7,-295.23 1461.7,-295.23 1461.7,-315.77 1461.7,-315.77 1461.7,-321.77 1455.7,-327.77 1449.7,-327.77"/>
<text xml:space="preserve" text-anchor="middle" x="1422.1" y="-300.07" font-family="Arial" font-size="14.00" fill="#1a1a1a">MMM</text>
</g>
<!-- LLL&#45;&gt;MMM -->
<g id="edge14" class="edge">
<title>LLL&#45;&gt;MMM</title>
<path fill="none" stroke="black" d="M1431.33,-421.01C1429.56,-399.03 1426.81,-364.91 1424.77,-339.63"/>
<polygon fill="black" stroke="black" points="1428.28,-339.56 1423.98,-329.87 1421.3,-340.12 1428.28,-339.56"/>
</g>
<!-- m_ehmed -->
<g id="node50" class="node">
<title>m_ehmed</title>
<path fill="lightgrey" stroke="none" d="M1345.7,-465.45C1345.7,-465.45 1308.5,-465.45 1308.5,-465.45 1302.5,-465.45 1296.5,-459.45 1296.5,-453.45 1296.5,-453.45 1296.5,-434.4 1296.5,-434.4 1296.5,-428.4 1302.5,-422.4 1308.5,-422.4 1308.5,-422.4 1345.7,-422.4 1345.7,-422.4 1351.7,-422.4 1357.7,-428.4 1357.7,-434.4 1357.7,-434.4 1357.7,-453.45 1357.7,-453.45 1357.7,-459.45 1351.7,-465.45 1345.7,-465.45"/>
<text xml:space="preserve" text-anchor="middle" x="1327.1" y="-439.65" font-family="Arial" font-size="12.00" fill="#555555"> — </text>
</g>
<!-- MMM&#45;&gt;m_ehmed -->
<g id="edge15" class="edge">
<title>MMM&#45;&gt;m_ehmed</title>
<path fill="none" stroke="#777777" d="M1406.83,-328.42C1388.77,-354.37 1358.92,-397.23 1341.32,-422.5"/>
</g>
<!-- NNN -->
<g id="node14" class="node">
<title>NNN</title>
<path fill="#90caf9" stroke="#2c2c2c" stroke-width="1.5" d="M1283.45,-335.65C1283.45,-335.65 1190.75,-335.65 1190.75,-335.65 1184.75,-335.65 1178.75,-329.65 1178.75,-323.65 1178.75,-323.65 1178.75,-287.35 1178.75,-287.35 1178.75,-281.35 1184.75,-275.35 1190.75,-275.35 1190.75,-275.35 1283.45,-275.35 1283.45,-275.35 1289.45,-275.35 1295.45,-281.35 1295.45,-287.35 1295.45,-287.35 1295.45,-323.65 1295.45,-323.65 1295.45,-329.65 1289.45,-335.65 1283.45,-335.65"/>
<text xml:space="preserve" text-anchor="middle" x="1237.1" y="-307.95" font-family="Arial" font-size="14.00" fill="#1a1a1a">NNN</text>
<text xml:space="preserve" text-anchor="middle" x="1237.1" y="-292.2" font-family="Arial" font-size="14.00" fill="#1a1a1a">(1950&#45;2000)</text>
</g>
<!-- m_ali_pashayev -->
<g id="node51" class="node">
<title>m_ali_pashayev</title>
<path fill="lightgrey" stroke="none" d="M1067.7,-465.45C1067.7,-465.45 1030.5,-465.45 1030.5,-465.45 1024.5,-465.45 1018.5,-459.45 1018.5,-453.45 1018.5,-453.45 1018.5,-434.4 1018.5,-434.4 1018.5,-428.4 1024.5,-422.4 1030.5,-422.4 1030.5,-422.4 1067.7,-422.4 1067.7,-422.4 1073.7,-422.4 1079.7,-428.4 1079.7,-434.4 1079.7,-434.4 1079.7,-453.45 1079.7,-453.45 1079.7,-459.45 1073.7,-465.45 1067.7,-465.45"/>
<text xml:space="preserve" text-anchor="middle" x="1049.1" y="-439.65" font-family="Arial" font-size="12.00" fill="#555555"> — </text>
</g>
<!-- NNN&#45;&gt;m_ali_pashayev -->
<g id="edge18" class="edge">
<title>NNN&#45;&gt;m_ali_pashayev</title>
<path fill="none" stroke="#777777" d="M1196.22,-336.17C1160.23,-362.28 1108.79,-399.61 1077.25,-422.5"/>
</g>
<!-- OOO -->
<g id="node15" class="node">
<title>OOO</title>
<path fill="#f48fb1" stroke="#2c2c2c" stroke-width="1.5" d="M795.45,-335.65C795.45,-335.65 732.75,-335.65 732.75,-335.65 726.75,-335.65 720.75,-329.65 720.75,-323.65 720.75,-323.65 720.75,-287.35 720.75,-287.35 720.75,-281.35 726.75,-275.35 732.75,-275.35 732.75,-275.35 795.45,-275.35 795.45,-275.35 801.45,-275.35 807.45,-281.35 807.45,-287.35 807.45,-287.35 807.45,-323.65 807.45,-323.65 807.45,-329.65 801.45,-335.65 795.45,-335.65"/>
<text xml:space="preserve" text-anchor="middle" x="764.1" y="-307.95" font-family="Arial" font-size="14.00" fill="#1a1a1a">OOO</text>
<text xml:space="preserve" text-anchor="middle" x="764.1" y="-292.2" font-family="Arial" font-size="14.00" fill="#1a1a1a">(1958&#45;)</text>
</g>
<!-- AAJ -->
<g id="node35" class="node">
<title>AAJ</title>
<path fill="#90caf9" stroke="#2c2c2c" stroke-width="1.5" d="M1663.82,-335.65C1663.82,-335.65 1516.38,-335.65 1516.38,-335.65 1510.38,-335.65 1504.38,-329.65 1504.38,-323.65 1504.38,-323.65 1504.38,-287.35 1504.38,-287.35 1504.38,-281.35 1510.38,-275.35 1516.38,-275.35 1516.38,-275.35 1663.82,-275.35 1663.82,-275.35 1669.82,-275.35 1675.82,-281.35 1675.82,-287.35 1675.82,-287.35 1675.82,-323.65 1675.82,-323.65 1675.82,-329.65 1669.82,-335.65 1663.82,-335.65"/>
<text xml:space="preserve" text-anchor="middle" x="1590.1" y="-307.95" font-family="Arial" font-size="14.00" fill="#1a1a1a">AAJ</text>
<text xml:space="preserve" text-anchor="middle" x="1590.1" y="-292.2" font-family="Arial" font-size="14.00" fill="#1a1a1a">(1978&#45;, occupation A)</text>
</g>
<!-- PPP&#45;&gt;AAJ -->
<!-- m1 -->
<g id="node58" class="node">
<title>m1</title>
<path fill="lightgrey" stroke="none" d="M1823.7,-465.45C1823.7,-465.45 1786.5,-465.45 1786.5,-465.45 1780.5,-465.45 1774.5,-459.45 1774.5,-453.45 1774.5,-453.45 1774.5,-434.4 1774.5,-434.4 1774.5,-428.4 1780.5,-422.4 1786.5,-422.4 1786.5,-422.4 1823.7,-422.4 1823.7,-422.4 1829.7,-422.4 1835.7,-428.4 1835.7,-434.4 1835.7,-434.4 1835.7,-453.45 1835.7,-453.45 1835.7,-459.45 1829.7,-465.45 1823.7,-465.45"/>
<text xml:space="preserve" text-anchor="middle" x="1805.1" y="-439.65" font-family="Arial" font-size="12.00" fill="#555555"> — </text>
</g>
<!-- PPP&#45;&gt;m1 -->
<g id="edge42" class="edge">
<title>PPP&#45;&gt;m1</title>
<path fill="none" stroke="#777777" d="M1637.02,-551.58C1678.78,-525.08 1738.65,-487.09 1774.53,-464.32"/>
</g>
<!-- QQQ -->
<g id="node17" class="node">
<title>QQQ</title>
<path fill="#f48fb1" stroke="#2c2c2c" stroke-width="1.5" d="M2127.45,-612.5C2127.45,-612.5 2064.75,-612.5 2064.75,-612.5 2058.75,-612.5 2052.75,-606.5 2052.75,-600.5 2052.75,-600.5 2052.75,-564.2 2052.75,-564.2 2052.75,-558.2 2058.75,-552.2 2064.75,-552.2 2064.75,-552.2 2127.45,-552.2 2127.45,-552.2 2133.45,-552.2 2139.45,-558.2 2139.45,-564.2 2139.45,-564.2 2139.45,-600.5 2139.45,-600.5 2139.45,-606.5 2133.45,-612.5 2127.45,-612.5"/>
<text xml:space="preserve" text-anchor="middle" x="2096.1" y="-584.8" font-family="Arial" font-size="14.00" fill="#1a1a1a">QQQ</text>
<text xml:space="preserve" text-anchor="middle" x="2096.1" y="-569.05" font-family="Arial" font-size="14.00" fill="#1a1a1a">(1955&#45;)</text>
</g>
<!-- RRR -->
<g id="node18" class="node">
<title>RRR</title>
<path fill="#90caf9" stroke="#2c2c2c" stroke-width="1.5" d="M1434.45,-612.5C1434.45,-612.5 1371.75,-612.5 1371.75,-612.5 1365.75,-612.5 1359.75,-606.5 1359.75,-600.5 1359.75,-600.5 1359.75,-564.2 1359.75,-564.2 1359.75,-558.2 1365.75,-552.2 1371.75,-552.2 1371.75,-552.2 1434.45,-552.2 1434.45,-552.2 1440.45,-552.2 1446.45,-558.2 1446.45,-564.2 1446.45,-564.2 1446.45,-600.5 1446.45,-600.5 1446.45,-606.5 1440.45,-612.5 1434.45,-612.5"/>
<text xml:space="preserve" text-anchor="middle" x="1403.1" y="-584.8" font-family="Arial" font-size="14.00" fill="#1a1a1a">RRR</text>
<text xml:space="preserve" text-anchor="middle" x="1403.1" y="-569.05" font-family="Arial" font-size="14.00" fill="#1a1a1a">(1932&#45;)</text>
</g>
<!-- m_sabir -->
<g id="node56" class="node">
<title>m_sabir</title>
<path fill="lightgrey" stroke="none" d="M661.7,-465.45C661.7,-465.45 624.5,-465.45 624.5,-465.45 618.5,-465.45 612.5,-459.45 612.5,-453.45 612.5,-453.45 612.5,-434.4 612.5,-434.4 612.5,-428.4 618.5,-422.4 624.5,-422.4 624.5,-422.4 661.7,-422.4 661.7,-422.4 667.7,-422.4 673.7,-428.4 673.7,-434.4 673.7,-434.4 673.7,-453.45 673.7,-453.45 673.7,-459.45 667.7,-465.45 661.7,-465.45"/>
<text xml:space="preserve" text-anchor="middle" x="643.1" y="-439.65" font-family="Arial" font-size="12.00" fill="#555555"> — </text>
</g>
<!-- RRR&#45;&gt;m_sabir -->
<g id="edge34" class="edge">
<title>RRR&#45;&gt;m_sabir</title>
<path fill="none" stroke="#777777" d="M1359.23,-573.48C1220.14,-548.51 791.23,-471.52 673.35,-450.36"/>
</g>
<!-- SSS -->
<g id="node19" class="node">
<title>SSS</title>
<path fill="#90caf9" stroke="#2c2c2c" stroke-width="1.5" d="M1305.2,-612.5C1305.2,-612.5 1157,-612.5 1157,-612.5 1151,-612.5 1145,-606.5 1145,-600.5 1145,-600.5 1145,-564.2 1145,-564.2 1145,-558.2 1151,-552.2 1157,-552.2 1157,-552.2 1305.2,-552.2 1305.2,-552.2 1311.2,-552.2 1317.2,-558.2 1317.2,-564.2 1317.2,-564.2 1317.2,-600.5 1317.2,-600.5 1317.2,-606.5 1311.2,-612.5 1305.2,-612.5"/>
<text xml:space="preserve" text-anchor="middle" x="1231.1" y="-584.8" font-family="Arial" font-size="14.00" fill="#1a1a1a">SSS</text>
<text xml:space="preserve" text-anchor="middle" x="1231.1" y="-569.05" font-family="Arial" font-size="14.00" fill="#1a1a1a">(1939&#45;, occupation B)</text>
</g>
<!-- TTT -->
<g id="node20" class="node">
<title>TTT</title>
<path fill="#90caf9" stroke="#2c2c2c" stroke-width="1.5" d="M169.07,-604.62C169.07,-604.62 125.12,-604.62 125.12,-604.62 119.12,-604.62 113.12,-598.62 113.12,-592.62 113.12,-592.62 113.12,-572.08 113.12,-572.08 113.12,-566.08 119.12,-560.08 125.12,-560.08 125.12,-560.08 169.07,-560.08 169.07,-560.08 175.07,-560.08 181.07,-566.08 181.07,-572.08 181.07,-572.08 181.07,-592.62 181.07,-592.62 181.07,-598.62 175.07,-604.62 169.07,-604.62"/>
<text xml:space="preserve" text-anchor="middle" x="147.1" y="-576.93" font-family="Arial" font-size="14.00" fill="#1a1a1a">TTT</text>
</g>
<!-- UUU -->
<g id="node21" class="node">
<title>UUU</title>
<path fill="#90caf9" stroke="#2c2c2c" stroke-width="1.5" d="M284.32,-604.62C284.32,-604.62 235.87,-604.62 235.87,-604.62 229.87,-604.62 223.87,-598.62 223.87,-592.62 223.87,-592.62 223.87,-572.08 223.87,-572.08 223.87,-566.08 229.87,-560.08 235.87,-560.08 235.87,-560.08 284.32,-560.08 284.32,-560.08 290.32,-560.08 296.32,-566.08 296.32,-572.08 296.32,-572.08 296.32,-592.62 296.32,-592.62 296.32,-598.62 290.32,-604.62 284.32,-604.62"/>
<text xml:space="preserve" text-anchor="middle" x="260.1" y="-576.93" font-family="Arial" font-size="14.00" fill="#1a1a1a">UUU</text>
</g>
<!-- VVV -->
<g id="node22" class="node">
<title>VVV</title>
<path fill="#f48fb1" stroke="#2c2c2c" stroke-width="1.5" d="M58.2,-604.62C58.2,-604.62 12,-604.62 12,-604.62 6,-604.62 0,-598.62 0,-592.62 0,-592.62 0,-572.08 0,-572.08 0,-566.08 6,-560.08 12,-560.08 12,-560.08 58.2,-560.08 58.2,-560.08 64.2,-560.08 70.2,-566.08 70.2,-572.08 70.2,-572.08 70.2,-592.62 70.2,-592.62 70.2,-598.62 64.2,-604.62 58.2,-604.62"/>
<text xml:space="preserve" text-anchor="middle" x="35.1" y="-576.93" font-family="Arial" font-size="14.00" fill="#1a1a1a">VVV</text>
</g>
<!-- WWW -->
<g id="node23" class="node">
<title>WWW</title>
<path fill="#90caf9" stroke="#2c2c2c" stroke-width="1.5" d="M976.95,-604.62C976.95,-604.62 917.25,-604.62 917.25,-604.62 911.25,-604.62 905.25,-598.62 905.25,-592.62 905.25,-592.62 905.25,-572.08 905.25,-572.08 905.25,-566.08 911.25,-560.08 917.25,-560.08 917.25,-560.08 976.95,-560.08 976.95,-560.08 982.95,-560.08 988.95,-566.08 988.95,-572.08 988.95,-572.08 988.95,-592.62 988.95,-592.62 988.95,-598.62 982.95,-604.62 976.95,-604.62"/>
<text xml:space="preserve" text-anchor="middle" x="947.1" y="-576.93" font-family="Arial" font-size="14.00" fill="#1a1a1a">WWW</text>
</g>
<!-- XXX -->
<g id="node24" class="node">
<title>XXX</title>
<path fill="#f48fb1" stroke="#2c2c2c" stroke-width="1.5" d="M1090.2,-604.62C1090.2,-604.62 1044,-604.62 1044,-604.62 1038,-604.62 1032,-598.62 1032,-592.62 1032,-592.62 1032,-572.08 1032,-572.08 1032,-566.08 1038,-560.08 1044,-560.08 1044,-560.08 1090.2,-560.08 1090.2,-560.08 1096.2,-560.08 1102.2,-566.08 1102.2,-572.08 1102.2,-572.08 1102.2,-592.62 1102.2,-592.62 1102.2,-598.62 1096.2,-604.62 1090.2,-604.62"/>
<text xml:space="preserve" text-anchor="middle" x="1067.1" y="-576.93" font-family="Arial" font-size="14.00" fill="#1a1a1a">XXX</text>
</g>
<!-- YYY -->
<g id="node25" class="node">
<title>YYY</title>
<path fill="#f48fb1" stroke="#2c2c2c" stroke-width="1.5" d="M512.2,-604.62C512.2,-604.62 466,-604.62 466,-604.62 460,-604.62 454,-598.62 454,-592.62 454,-592.62 454,-572.08 454,-572.08 454,-566.08 460,-560.08 466,-560.08 466,-560.08 512.2,-560.08 512.2,-560.08 518.2,-560.08 524.2,-566.08 524.2,-572.08 524.2,-572.08 524.2,-592.62 524.2,-592.62 524.2,-598.62 518.2,-604.62 512.2,-604.62"/>
<text xml:space="preserve" text-anchor="middle" x="489.1" y="-576.93" font-family="Arial" font-size="14.00" fill="#1a1a1a">YYY</text>
</g>
<!-- ZZZ -->
<g id="node26" class="node">
<title>ZZZ</title>
<path fill="#f48fb1" stroke="#2c2c2c" stroke-width="1.5" d="M623.07,-604.62C623.07,-604.62 579.12,-604.62 579.12,-604.62 573.12,-604.62 567.12,-598.62 567.12,-592.62 567.12,-592.62 567.12,-572.08 567.12,-572.08 567.12,-566.08 573.12,-560.08 579.12,-560.08 579.12,-560.08 623.07,-560.08 623.07,-560.08 629.07,-560.08 635.07,-566.08 635.07,-572.08 635.07,-572.08 635.07,-592.62 635.07,-592.62 635.07,-598.62 629.07,-604.62 623.07,-604.62"/>
<text xml:space="preserve" text-anchor="middle" x="601.1" y="-576.93" font-family="Arial" font-size="14.00" fill="#1a1a1a">ZZZ</text>
</g>
<!-- AAB -->
<g id="node27" class="node">
<title>AAB</title>
<path fill="#f48fb1" stroke="#2c2c2c" stroke-width="1.5" d="M736.2,-604.62C736.2,-604.62 690,-604.62 690,-604.62 684,-604.62 678,-598.62 678,-592.62 678,-592.62 678,-572.08 678,-572.08 678,-566.08 684,-560.08 690,-560.08 690,-560.08 736.2,-560.08 736.2,-560.08 742.2,-560.08 748.2,-566.08 748.2,-572.08 748.2,-572.08 748.2,-592.62 748.2,-592.62 748.2,-598.62 742.2,-604.62 736.2,-604.62"/>
<text xml:space="preserve" text-anchor="middle" x="713.1" y="-576.93" font-family="Arial" font-size="14.00" fill="#1a1a1a">AAB</text>
</g>
<!-- AAC -->
<g id="node28" class="node">
<title>AAC</title>
<path fill="#f48fb1" stroke="#2c2c2c" stroke-width="1.5" d="M850.57,-604.62C850.57,-604.62 803.62,-604.62 803.62,-604.62 797.62,-604.62 791.62,-598.62 791.62,-592.62 791.62,-592.62 791.62,-572.08 791.62,-572.08 791.62,-566.08 797.62,-560.08 803.62,-560.08 803.62,-560.08 850.57,-560.08 850.57,-560.08 856.57,-560.08 862.57,-566.08 862.57,-572.08 862.57,-572.08 862.57,-592.62 862.57,-592.62 862.57,-598.62 856.57,-604.62 850.57,-604.62"/>
<text xml:space="preserve" text-anchor="middle" x="827.1" y="-576.93" font-family="Arial" font-size="14.00" fill="#1a1a1a">AAC</text>
</g>
<!-- AAD -->
<g id="node29" class="node">
<title>AAD</title>
<path fill="#f48fb1" stroke="#2c2c2c" stroke-width="1.5" d="M398.57,-604.62C398.57,-604.62 351.62,-604.62 351.62,-604.62 345.62,-604.62 339.62,-598.62 339.62,-592.62 339.62,-592.62 339.62,-572.08 339.62,-572.08 339.62,-566.08 345.62,-560.08 351.62,-560.08 351.62,-560.08 398.57,-560.08 398.57,-560.08 404.57,-560.08 410.57,-566.08 410.57,-572.08 410.57,-572.08 410.57,-592.62 410.57,-592.62 410.57,-598.62 404.57,-604.62 398.57,-604.62"/>
<text xml:space="preserve" text-anchor="middle" x="375.1" y="-576.93" font-family="Arial" font-size="14.00" fill="#1a1a1a">AAD</text>
</g>
<!-- AAE -->
<g id="node30" class="node">
<title>AAE</title>
<path fill="#90caf9" stroke="#2c2c2c" stroke-width="1.5" d="M666.2,-327.77C666.2,-327.77 620,-327.77 620,-327.77 614,-327.77 608,-321.77 608,-315.77 608,-315.77 608,-295.23 608,-295.23 608,-289.23 614,-283.23 620,-283.23 620,-283.23 666.2,-283.23 666.2,-283.23 672.2,-283.23 678.2,-289.23 678.2,-295.23 678.2,-295.23 678.2,-315.77 678.2,-315.77 678.2,-321.77 672.2,-327.77 666.2,-327.77"/>
<text xml:space="preserve" text-anchor="middle" x="643.1" y="-300.07" font-family="Arial" font-size="14.00" fill="#1a1a1a">AAE</text>
</g>
<!-- m_nizami -->
<g id="node57" class="node">
<title>m_nizami</title>
<path fill="lightgrey" stroke="none" d="M782.7,-189.35C782.7,-189.35 745.5,-189.35 745.5,-189.35 739.5,-189.35 733.5,-183.35 733.5,-177.35 733.5,-177.35 733.5,-158.3 733.5,-158.3 733.5,-152.3 739.5,-146.3 745.5,-146.3 745.5,-146.3 782.7,-146.3 782.7,-146.3 788.7,-146.3 794.7,-152.3 794.7,-158.3 794.7,-158.3 794.7,-177.35 794.7,-177.35 794.7,-183.35 788.7,-189.35 782.7,-189.35"/>
<text xml:space="preserve" text-anchor="middle" x="764.1" y="-163.55" font-family="Arial" font-size="12.00" fill="#555555"> — </text>
</g>
<!-- AAE&#45;&gt;m_nizami -->
<g id="edge37" class="edge">
<title>AAE&#45;&gt;m_nizami</title>
<path fill="none" stroke="#777777" d="M662.54,-282.7C685.52,-256.93 723.47,-214.39 745.9,-189.24"/>
</g>
<!-- AAF -->
<g id="node31" class="node">
<title>AAF</title>
<path fill="#f48fb1" stroke="#2c2c2c" stroke-width="1.5" d="M907.82,-327.77C907.82,-327.77 862.37,-327.77 862.37,-327.77 856.37,-327.77 850.37,-321.77 850.37,-315.77 850.37,-315.77 850.37,-295.23 850.37,-295.23 850.37,-289.23 856.37,-283.23 862.37,-283.23 862.37,-283.23 907.82,-283.23 907.82,-283.23 913.82,-283.23 919.82,-289.23 919.82,-295.23 919.82,-295.23 919.82,-315.77 919.82,-315.77 919.82,-321.77 913.82,-327.77 907.82,-327.77"/>
<text xml:space="preserve" text-anchor="middle" x="885.1" y="-300.07" font-family="Arial" font-size="14.00" fill="#1a1a1a">AAF</text>
</g>
<!-- AAG -->
<g id="node32" class="node">
<title>AAG</title>
<path fill="#f48fb1" stroke="#2c2c2c" stroke-width="1.5" d="M910.32,-52.42C910.32,-52.42 861.87,-52.42 861.87,-52.42 855.87,-52.42 849.87,-46.42 849.87,-40.42 849.87,-40.42 849.87,-19.88 849.87,-19.88 849.87,-13.88 855.87,-7.88 861.87,-7.88 861.87,-7.88 910.32,-7.88 910.32,-7.88 916.32,-7.88 922.32,-13.88 922.32,-19.88 922.32,-19.88 922.32,-40.42 922.32,-40.42 922.32,-46.42 916.32,-52.42 910.32,-52.42"/>
<text xml:space="preserve" text-anchor="middle" x="886.1" y="-24.73" font-family="Arial" font-size="14.00" fill="#1a1a1a">AAG</text>
</g>
<!-- AAH -->
<g id="node33" class="node">
<title>AAH</title>
<path fill="#f48fb1" stroke="#2c2c2c" stroke-width="1.5" d="M666.57,-52.42C666.57,-52.42 619.62,-52.42 619.62,-52.42 613.62,-52.42 607.62,-46.42 607.62,-40.42 607.62,-40.42 607.62,-19.88 607.62,-19.88 607.62,-13.88 613.62,-7.88 619.62,-7.88 619.62,-7.88 666.57,-7.88 666.57,-7.88 672.57,-7.88 678.57,-13.88 678.57,-19.88 678.57,-19.88 678.57,-40.42 678.57,-40.42 678.57,-46.42 672.57,-52.42 666.57,-52.42"/>
<text xml:space="preserve" text-anchor="middle" x="643.1" y="-24.73" font-family="Arial" font-size="14.00" fill="#1a1a1a">AAH</text>
</g>
<!-- AAI -->
<g id="node34" class="node">
<title>AAI</title>
<path fill="#90caf9" stroke="#2c2c2c" stroke-width="1.5" d="M794.7,-52.42C794.7,-52.42 733.5,-52.42 733.5,-52.42 727.5,-52.42 721.5,-46.42 721.5,-40.42 721.5,-40.42 721.5,-19.88 721.5,-19.88 721.5,-13.88 727.5,-7.88 733.5,-7.88 733.5,-7.88 794.7,-7.88 794.7,-7.88 800.7,-7.88 806.7,-13.88 806.7,-19.88 806.7,-19.88 806.7,-40.42 806.7,-40.42 806.7,-46.42 800.7,-52.42 794.7,-52.42"/>
<text xml:space="preserve" text-anchor="middle" x="764.1" y="-24.73" font-family="Arial" font-size="14.00" fill="#1a1a1a">AAI (2)</text>
</g>
<!-- AAP -->
<g id="node41" class="node">
<title>AAP</title>
<path fill="#0d47a1" stroke="#2c2c2c" stroke-width="1.5" d="M1621.45,-60.3C1621.45,-60.3 1558.75,-60.3 1558.75,-60.3 1552.75,-60.3 1546.75,-54.3 1546.75,-48.3 1546.75,-48.3 1546.75,-12 1546.75,-12 1546.75,-6 1552.75,0 1558.75,0 1558.75,0 1621.45,0 1621.45,0 1627.45,0 1633.45,-6 1633.45,-12 1633.45,-12 1633.45,-48.3 1633.45,-48.3 1633.45,-54.3 1627.45,-60.3 1621.45,-60.3"/>
<text xml:space="preserve" text-anchor="middle" x="1590.1" y="-32.6" font-family="Arial" font-size="14.00" fill="white">AAP</text>
<text xml:space="preserve" text-anchor="middle" x="1590.1" y="-16.85" font-family="Arial" font-size="14.00" fill="white">(2007&#45;)</text>
</g>
<!-- AAJ&#45;&gt;AAP -->
<!-- m2 -->
<g id="node59" class="node">
<title>m2</title>
<path fill="lightgrey" stroke="none" d="M1495.7,-189.35C1495.7,-189.35 1458.5,-189.35 1458.5,-189.35 1452.5,-189.35 1446.5,-183.35 1446.5,-177.35 1446.5,-177.35 1446.5,-158.3 1446.5,-158.3 1446.5,-152.3 1452.5,-146.3 1458.5,-146.3 1458.5,-146.3 1495.7,-146.3 1495.7,-146.3 1501.7,-146.3 1507.7,-152.3 1507.7,-158.3 1507.7,-158.3 1507.7,-177.35 1507.7,-177.35 1507.7,-183.35 1501.7,-189.35 1495.7,-189.35"/>
<text xml:space="preserve" text-anchor="middle" x="1477.1" y="-163.55" font-family="Arial" font-size="12.00" fill="#555555"> — </text>
</g>
<!-- AAJ&#45;&gt;m2 -->
<g id="edge47" class="edge">
<title>AAJ&#45;&gt;m2</title>
<path fill="none" stroke="#777777" d="M1565.3,-274.73C1543.73,-248.83 1513.05,-211.99 1494.14,-189.29"/>
</g>
<!-- AAK -->
<g id="node36" class="node">
<title>AAK</title>
<path fill="#f48fb1" stroke="#2c2c2c" stroke-width="1.5" d="M1123.57,-335.65C1123.57,-335.65 974.62,-335.65 974.62,-335.65 968.62,-335.65 962.62,-329.65 962.62,-323.65 962.62,-323.65 962.62,-287.35 962.62,-287.35 962.62,-281.35 968.62,-275.35 974.62,-275.35 974.62,-275.35 1123.57,-275.35 1123.57,-275.35 1129.57,-275.35 1135.57,-281.35 1135.57,-287.35 1135.57,-287.35 1135.57,-323.65 1135.57,-323.65 1135.57,-329.65 1129.57,-335.65 1123.57,-335.65"/>
<text xml:space="preserve" text-anchor="middle" x="1049.1" y="-307.95" font-family="Arial" font-size="14.00" fill="#1a1a1a">AAK</text>
<text xml:space="preserve" text-anchor="middle" x="1049.1" y="-292.2" font-family="Arial" font-size="14.00" fill="#1a1a1a">(1982&#45;, occupation C)</text>
</g>
<!-- AAL -->
<g id="node37" class="node">
<title>AAL</title>
<path fill="#90caf9" stroke="#2c2c2c" stroke-width="1.5" d="M1879.57,-335.65C1879.57,-335.65 1730.62,-335.65 1730.62,-335.65 1724.62,-335.65 1718.62,-329.65 1718.62,-323.65 1718.62,-323.65 1718.62,-287.35 1718.62,-287.35 1718.62,-281.35 1724.62,-275.35 1730.62,-275.35 1730.62,-275.35 1879.57,-275.35 1879.57,-275.35 1885.57,-275.35 1891.57,-281.35 1891.57,-287.35 1891.57,-287.35 1891.57,-323.65 1891.57,-323.65 1891.57,-329.65 1885.57,-335.65 1879.57,-335.65"/>
<text xml:space="preserve" text-anchor="middle" x="1805.1" y="-307.95" font-family="Arial" font-size="14.00" fill="#1a1a1a">AAL</text>
<text xml:space="preserve" text-anchor="middle" x="1805.1" y="-292.2" font-family="Arial" font-size="14.00" fill="#1a1a1a">(1979&#45;, occupation D)</text>
</g>
<!-- m3 -->
<g id="node60" class="node">
<title>m3</title>
<path fill="lightgrey" stroke="none" d="M1954.7,-189.35C1954.7,-189.35 1917.5,-189.35 1917.5,-189.35 1911.5,-189.35 1905.5,-183.35 1905.5,-177.35 1905.5,-177.35 1905.5,-158.3 1905.5,-158.3 1905.5,-152.3 1911.5,-146.3 1917.5,-146.3 1917.5,-146.3 1954.7,-146.3 1954.7,-146.3 1960.7,-146.3 1966.7,-152.3 1966.7,-158.3 1966.7,-158.3 1966.7,-177.35 1966.7,-177.35 1966.7,-183.35 1960.7,-189.35 1954.7,-189.35"/>
<text xml:space="preserve" text-anchor="middle" x="1936.1" y="-163.55" font-family="Arial" font-size="12.00" fill="#555555"> — </text>
</g>
<!-- AAL&#45;&gt;m3 -->
<g id="edge51" class="edge">
<title>AAL&#45;&gt;m3</title>
<path fill="none" stroke="#777777" d="M1833.85,-274.73C1858.85,-248.83 1894.42,-211.99 1916.34,-189.29"/>
</g>
<!-- AAM -->
<g id="node38" class="node">
<title>AAM</title>
<path fill="#f48fb1" stroke="#2c2c2c" stroke-width="1.5" d="M2095.57,-335.65C2095.57,-335.65 1946.62,-335.65 1946.62,-335.65 1940.62,-335.65 1934.62,-329.65 1934.62,-323.65 1934.62,-323.65 1934.62,-287.35 1934.62,-287.35 1934.62,-281.35 1940.62,-275.35 1946.62,-275.35 1946.62,-275.35 2095.57,-275.35 2095.57,-275.35 2101.57,-275.35 2107.57,-281.35 2107.57,-287.35 2107.57,-287.35 2107.57,-323.65 2107.57,-323.65 2107.57,-329.65 2101.57,-335.65 2095.57,-335.65"/>
<text xml:space="preserve" text-anchor="middle" x="2021.1" y="-307.95" font-family="Arial" font-size="14.00" fill="#1a1a1a">AAM</text>
<text xml:space="preserve" text-anchor="middle" x="2021.1" y="-292.2" font-family="Arial" font-size="14.00" fill="#1a1a1a">(1983&#45;, occupation C)</text>
</g>
<!-- AAN -->
<g id="node39" class="node">
<title>AAN</title>
<path fill="#f48fb1" stroke="#2c2c2c" stroke-width="1.5" d="M2341.45,-335.65C2341.45,-335.65 2278.75,-335.65 2278.75,-335.65 2272.75,-335.65 2266.75,-329.65 2266.75,-323.65 2266.75,-323.65 2266.75,-287.35 2266.75,-287.35 2266.75,-281.35 2272.75,-275.35 2278.75,-275.35 2278.75,-275.35 2341.45,-275.35 2341.45,-275.35 2347.45,-275.35 2353.45,-281.35 2353.45,-287.35 2353.45,-287.35 2353.45,-323.65 2353.45,-323.65 2353.45,-329.65 2347.45,-335.65 2341.45,-335.65"/>
<text xml:space="preserve" text-anchor="middle" x="2310.1" y="-307.95" font-family="Arial" font-size="14.00" fill="#1a1a1a">AAN</text>
<text xml:space="preserve" text-anchor="middle" x="2310.1" y="-292.2" font-family="Arial" font-size="14.00" fill="#1a1a1a">(1985&#45;)</text>
</g>
<!-- m4 -->
<g id="node61" class="node">
<title>m4</title>
<path fill="lightgrey" stroke="none" d="M2266.7,-189.35C2266.7,-189.35 2229.5,-189.35 2229.5,-189.35 2223.5,-189.35 2217.5,-183.35 2217.5,-177.35 2217.5,-177.35 2217.5,-158.3 2217.5,-158.3 2217.5,-152.3 2223.5,-146.3 2229.5,-146.3 2229.5,-146.3 2266.7,-146.3 2266.7,-146.3 2272.7,-146.3 2278.7,-152.3 2278.7,-158.3 2278.7,-158.3 2278.7,-177.35 2278.7,-177.35 2278.7,-183.35 2272.7,-189.35 2266.7,-189.35"/>
<text xml:space="preserve" text-anchor="middle" x="2248.1" y="-163.55" font-family="Arial" font-size="12.00" fill="#555555"> — </text>
</g>
<!-- AAN&#45;&gt;m4 -->
<g id="edge55" class="edge">
<title>AAN&#45;&gt;m4</title>
<path fill="none" stroke="#777777" d="M2296.49,-274.73C2284.66,-248.83 2267.82,-211.99 2257.45,-189.29"/>
</g>
<!-- AAO -->
<g id="node40" class="node">
<title>AAO</title>
<path fill="#90caf9" stroke="#2c2c2c" stroke-width="1.5" d="M2211.32,-327.77C2211.32,-327.77 2162.88,-327.77 2162.88,-327.77 2156.88,-327.77 2150.88,-321.77 2150.88,-315.77 2150.88,-315.77 2150.88,-295.23 2150.88,-295.23 2150.88,-289.23 2156.88,-283.23 2162.88,-283.23 2162.88,-283.23 2211.32,-283.23 2211.32,-283.23 2217.32,-283.23 2223.32,-289.23 2223.32,-295.23 2223.32,-295.23 2223.32,-315.77 2223.32,-315.77 2223.32,-321.77 2217.32,-327.77 2211.32,-327.77"/>
<text xml:space="preserve" text-anchor="middle" x="2187.1" y="-300.07" font-family="Arial" font-size="14.00" fill="#1a1a1a">AAO</text>
</g>
<!-- AAQ -->
<g id="node42" class="node">
<title>AAQ</title>
<path fill="#90caf9" stroke="#2c2c2c" stroke-width="1.5" d="M1491.45,-60.3C1491.45,-60.3 1428.75,-60.3 1428.75,-60.3 1422.75,-60.3 1416.75,-54.3 1416.75,-48.3 1416.75,-48.3 1416.75,-12 1416.75,-12 1416.75,-6 1422.75,0 1428.75,0 1428.75,0 1491.45,0 1491.45,0 1497.45,0 1503.45,-6 1503.45,-12 1503.45,-12 1503.45,-48.3 1503.45,-48.3 1503.45,-54.3 1497.45,-60.3 1491.45,-60.3"/>
<text xml:space="preserve" text-anchor="middle" x="1460.1" y="-32.6" font-family="Arial" font-size="14.00" fill="#1a1a1a">AAQ</text>
<text xml:space="preserve" text-anchor="middle" x="1460.1" y="-16.85" font-family="Arial" font-size="14.00" fill="#1a1a1a">(2005&#45;)</text>
</g>
<!-- AAR -->
<g id="node43" class="node">
<title>AAR</title>
<path fill="#90caf9" stroke="#2c2c2c" stroke-width="1.5" d="M1902.45,-60.3C1902.45,-60.3 1839.75,-60.3 1839.75,-60.3 1833.75,-60.3 1827.75,-54.3 1827.75,-48.3 1827.75,-48.3 1827.75,-12 1827.75,-12 1827.75,-6 1833.75,0 1839.75,0 1839.75,0 1902.45,0 1902.45,0 1908.45,0 1914.45,-6 1914.45,-12 1914.45,-12 1914.45,-48.3 1914.45,-48.3 1914.45,-54.3 1908.45,-60.3 1902.45,-60.3"/>
<text xml:space="preserve" text-anchor="middle" x="1871.1" y="-32.6" font-family="Arial" font-size="14.00" fill="#1a1a1a">AAR</text>
<text xml:space="preserve" text-anchor="middle" x="1871.1" y="-16.85" font-family="Arial" font-size="14.00" fill="#1a1a1a">(2015&#45;)</text>
</g>
<!-- AAS -->
<g id="node44" class="node">
<title>AAS</title>
<path fill="#90caf9" stroke="#2c2c2c" stroke-width="1.5" d="M2032.45,-60.3C2032.45,-60.3 1969.75,-60.3 1969.75,-60.3 1963.75,-60.3 1957.75,-54.3 1957.75,-48.3 1957.75,-48.3 1957.75,-12 1957.75,-12 1957.75,-6 1963.75,0 1969.75,0 1969.75,0 2032.45,0 2032.45,0 2038.45,0 2044.45,-6 2044.45,-12 2044.45,-12 2044.45,-48.3 2044.45,-48.3 2044.45,-54.3 2038.45,-60.3 2032.45,-60.3"/>
<text xml:space="preserve" text-anchor="middle" x="2001.1" y="-32.6" font-family="Arial" font-size="14.00" fill="#1a1a1a">AAS</text>
<text xml:space="preserve" text-anchor="middle" x="2001.1" y="-16.85" font-family="Arial" font-size="14.00" fill="#1a1a1a">(2017&#45;)</text>
</g>
<!-- AAT -->
<g id="node45" class="node">
<title>AAT</title>
<path fill="#90caf9" stroke="#2c2c2c" stroke-width="1.5" d="M2238.45,-52.42C2238.45,-52.42 2193.75,-52.42 2193.75,-52.42 2187.75,-52.42 2181.75,-46.42 2181.75,-40.42 2181.75,-40.42 2181.75,-19.88 2181.75,-19.88 2181.75,-13.88 2187.75,-7.88 2193.75,-7.88 2193.75,-7.88 2238.45,-7.88 2238.45,-7.88 2244.45,-7.88 2250.45,-13.88 2250.45,-19.88 2250.45,-19.88 2250.45,-40.42 2250.45,-40.42 2250.45,-46.42 2244.45,-52.42 2238.45,-52.42"/>
<text xml:space="preserve" text-anchor="middle" x="2216.1" y="-24.73" font-family="Arial" font-size="14.00" fill="#1a1a1a">AAT</text>
</g>
<!-- AAU -->
<g id="node46" class="node">
<title>AAU</title>
<path fill="#90caf9" stroke="#2c2c2c" stroke-width="1.5" d="M2352.57,-52.42C2352.57,-52.42 2305.62,-52.42 2305.62,-52.42 2299.62,-52.42 2293.62,-46.42 2293.62,-40.42 2293.62,-40.42 2293.62,-19.88 2293.62,-19.88 2293.62,-13.88 2299.62,-7.88 2305.62,-7.88 2305.62,-7.88 2352.57,-7.88 2352.57,-7.88 2358.57,-7.88 2364.57,-13.88 2364.57,-19.88 2364.57,-19.88 2364.57,-40.42 2364.57,-40.42 2364.57,-46.42 2358.57,-52.42 2352.57,-52.42"/>
<text xml:space="preserve" text-anchor="middle" x="2329.1" y="-24.73" font-family="Arial" font-size="14.00" fill="#1a1a1a">AAU</text>
</g>
<!-- m_izzet&#45;&gt;EEE -->
<g id="edge7" class="edge">
<title>m_izzet&#45;&gt;EEE</title>
<path fill="none" stroke="#777777" d="M1275.89,-741.44C1249.75,-766.59 1205.53,-809.13 1178.75,-834.9"/>
</g>
<!-- m_izzet&#45;&gt;PPP -->
<g id="edge8" class="edge">
<title>m_izzet&#45;&gt;PPP</title>
<path fill="none" stroke="black" d="M1327.63,-704.89C1371.69,-684.49 1454.49,-646.15 1515.35,-617.96"/>
<polygon fill="black" stroke="black" points="1516.71,-621.19 1524.31,-613.81 1513.76,-614.84 1516.71,-621.19"/>
</g>
<!-- m_izzet&#45;&gt;RRR -->
<g id="edge9" class="edge">
<title>m_izzet&#45;&gt;RRR</title>
<path fill="none" stroke="black" d="M1312.97,-698.71C1328.76,-678.5 1353.39,-646.98 1372.91,-621.99"/>
<polygon fill="black" stroke="black" points="1375.52,-624.34 1378.92,-614.3 1370,-620.03 1375.52,-624.34"/>
</g>
<!-- m_izzet&#45;&gt;SSS -->
<g id="edge10" class="edge">
<title>m_izzet&#45;&gt;SSS</title>
<path fill="none" stroke="black" d="M1287.22,-698.71C1277.56,-678.86 1262.59,-648.08 1250.54,-623.31"/>
<polygon fill="black" stroke="black" points="1253.76,-621.93 1246.24,-614.47 1247.47,-624.99 1253.76,-621.93"/>
</g>
<!-- m_mansur&#45;&gt;KKK -->
<g id="edge12" class="edge">
<title>m_mansur&#45;&gt;KKK</title>
<path fill="none" stroke="#777777" d="M1927.3,-698.71C1900.7,-676.02 1857.39,-639.06 1826.97,-613.11"/>
</g>
<!-- m_mansur&#45;&gt;QQQ -->
<g id="edge13" class="edge">
<title>m_mansur&#45;&gt;QQQ</title>
<path fill="none" stroke="black" d="M1972.81,-698.71C1994.79,-678.15 2029.29,-645.87 2056.21,-620.68"/>
<polygon fill="black" stroke="black" points="2058.28,-623.53 2063.19,-614.14 2053.5,-618.42 2058.28,-623.53"/>
</g>
<!-- MMM_sp -->
<!-- m_ehmed&#45;&gt;NNN -->
<g id="edge17" class="edge">
<title>m_ehmed&#45;&gt;NNN</title>
<path fill="none" stroke="black" d="M1313.63,-422.5C1300.29,-402.29 1279.54,-370.83 1263.01,-345.77"/>
<polygon fill="black" stroke="black" points="1265.93,-343.85 1257.51,-337.43 1260.09,-347.71 1265.93,-343.85"/>
</g>
<!-- m_ehmed&#45;&gt;MMM_sp -->
<g id="edge16" class="edge">
<title>m_ehmed&#45;&gt;MMM_sp</title>
<path fill="none" stroke="#777777" d="M1328.9,-422.5C1332.19,-385.04 1338.89,-308.93 1339.1,-306.56"/>
</g>
<!-- m_ali_pashayev&#45;&gt;OOO -->
<g id="edge19" class="edge">
<title>m_ali_pashayev&#45;&gt;OOO</title>
<path fill="none" stroke="#777777" d="M1018.6,-428.33C967.91,-404.06 866.14,-355.35 807.82,-327.43"/>
</g>
<!-- m_ali_pashayev&#45;&gt;AAK -->
<g id="edge20" class="edge">
<title>m_ali_pashayev&#45;&gt;AAK</title>
<path fill="none" stroke="black" d="M1049.1,-422.5C1049.1,-402.74 1049.1,-372.22 1049.1,-347.44"/>
<polygon fill="black" stroke="black" points="1052.6,-347.68 1049.1,-337.68 1045.6,-347.68 1052.6,-347.68"/>
</g>
<!-- FFF_sp -->
<!-- m_nuri&#45;&gt;TTT -->
<g id="edge23" class="edge">
<title>m_nuri&#45;&gt;TTT</title>
<path fill="none" stroke="black" d="M194.72,-698.71C185.64,-676.72 171.03,-641.34 160.39,-615.55"/>
<polygon fill="black" stroke="black" points="163.73,-614.46 156.68,-606.55 157.26,-617.13 163.73,-614.46"/>
</g>
<!-- m_nuri&#45;&gt;UUU -->
<g id="edge24" class="edge">
<title>m_nuri&#45;&gt;UUU</title>
<path fill="none" stroke="black" d="M211.63,-698.71C220.87,-676.72 235.74,-641.34 246.57,-615.55"/>
<polygon fill="black" stroke="black" points="249.71,-617.12 250.35,-606.55 243.25,-614.41 249.71,-617.12"/>
</g>
<!-- m_nuri&#45;&gt;VVV -->
<g id="edge25" class="edge">
<title>m_nuri&#45;&gt;VVV</title>
<path fill="none" stroke="black" d="M177.95,-698.71C149.5,-675.74 102.96,-638.15 70.77,-612.15"/>
<polygon fill="black" stroke="black" points="73.25,-609.66 63.27,-606.1 68.85,-615.11 73.25,-609.66"/>
</g>
<!-- m_nuri&#45;&gt;FFF_sp -->
<g id="edge22" class="edge">
<title>m_nuri&#45;&gt;FFF_sp</title>
<path fill="none" stroke="#777777" d="M203.1,-741.34C203.1,-778.41 203.1,-853.51 203.1,-856.6"/>
</g>
<!-- III_sp -->
<!-- m_adil&#45;&gt;WWW -->
<g id="edge28" class="edge">
<title>m_adil&#45;&gt;WWW</title>
<path fill="none" stroke="black" d="M845.07,-698.71C865.04,-676.13 897.5,-639.43 920.44,-613.5"/>
<polygon fill="black" stroke="black" points="922.81,-616.09 926.82,-606.28 917.57,-611.46 922.81,-616.09"/>
</g>
<!-- m_adil&#45;&gt;XXX -->
<g id="edge29" class="edge">
<title>m_adil&#45;&gt;XXX</title>
<path fill="none" stroke="black" d="M857.5,-701.84C898.95,-678.41 973.54,-636.24 1021.65,-609.04"/>
<polygon fill="black" stroke="black" points="1023.19,-612.19 1030.18,-604.22 1019.75,-606.1 1023.19,-612.19"/>
</g>
<!-- m_adil&#45;&gt;YYY -->
<g id="edge30" class="edge">
<title>m_adil&#45;&gt;YYY</title>
<path fill="none" stroke="black" d="M796.51,-706.75C737,-682.86 605.36,-630.02 535.21,-601.86"/>
<polygon fill="black" stroke="black" points="536.9,-598.77 526.32,-598.29 534.29,-605.26 536.9,-598.77"/>
</g>
<!-- m_adil&#45;&gt;ZZZ -->
<g id="edge31" class="edge">
<title>m_adil&#45;&gt;ZZZ</title>
<path fill="none" stroke="black" d="M796.62,-700.73C757.64,-677.33 689.85,-636.63 645.23,-609.84"/>
<polygon fill="black" stroke="black" points="647.2,-606.94 636.82,-604.8 643.59,-612.94 647.2,-606.94"/>
</g>
<!-- m_adil&#45;&gt;AAB -->
<g id="edge32" class="edge">
<title>m_adil&#45;&gt;AAB</title>
<path fill="none" stroke="black" d="M810.03,-698.71C791.14,-676.23 760.49,-639.75 738.72,-613.84"/>
<polygon fill="black" stroke="black" points="741.5,-611.71 732.39,-606.31 736.15,-616.22 741.5,-611.71"/>
</g>
<!-- m_adil&#45;&gt;AAC -->
<g id="edge33" class="edge">
<title>m_adil&#45;&gt;AAC</title>
<path fill="none" stroke="black" d="M827.1,-698.71C827.1,-677.02 827.1,-642.28 827.1,-616.59"/>
<polygon fill="black" stroke="black" points="830.6,-616.66 827.1,-606.66 823.6,-616.66 830.6,-616.66"/>
</g>
<!-- m_adil&#45;&gt;III_sp -->
<g id="edge27" class="edge">
<title>m_adil&#45;&gt;III_sp</title>
<path fill="none" stroke="#777777" d="M827.1,-741.34C827.1,-778.41 827.1,-853.51 827.1,-856.6"/>
</g>
<!-- m_sabir&#45;&gt;AAD -->
<g id="edge35" class="edge">
<title>m_sabir&#45;&gt;AAD</title>
<path fill="none" stroke="#777777" d="M612.9,-460.3C563.23,-485.58 464.54,-535.82 411.24,-562.95"/>
</g>
<!-- m_sabir&#45;&gt;AAE -->
<g id="edge36" class="edge">
<title>m_sabir&#45;&gt;AAE</title>
<path fill="none" stroke="black" d="M643.1,-422.5C643.1,-400.68 643.1,-365.76 643.1,-339.92"/>
<polygon fill="black" stroke="black" points="646.6,-339.93 643.1,-329.93 639.6,-339.93 646.6,-339.93"/>
</g>
<!-- m_nizami&#45;&gt;AAF -->
<g id="edge38" class="edge">
<title>m_nizami&#45;&gt;AAF</title>
<path fill="none" stroke="#777777" d="M782.3,-189.24C804.73,-214.39 842.68,-256.93 865.66,-282.7"/>
</g>
<!-- m_nizami&#45;&gt;AAG -->
<g id="edge40" class="edge">
<title>m_nizami&#45;&gt;AAG</title>
<path fill="none" stroke="black" d="M782.36,-146.51C802.67,-123.93 835.67,-87.23 858.99,-61.3"/>
<polygon fill="black" stroke="black" points="861.4,-63.85 865.48,-54.08 856.2,-59.17 861.4,-63.85"/>
</g>
<!-- m_nizami&#45;&gt;AAH -->
<g id="edge41" class="edge">
<title>m_nizami&#45;&gt;AAH</title>
<path fill="none" stroke="black" d="M745.99,-146.51C725.85,-123.93 693.12,-87.23 669.99,-61.3"/>
<polygon fill="black" stroke="black" points="672.82,-59.21 663.55,-54.08 667.59,-63.87 672.82,-59.21"/>
</g>
<!-- m_nizami&#45;&gt;AAI -->
<g id="edge39" class="edge">
<title>m_nizami&#45;&gt;AAI</title>
<path fill="none" stroke="black" d="M764.1,-146.51C764.1,-124.82 764.1,-90.08 764.1,-64.39"/>
<polygon fill="black" stroke="black" points="767.6,-64.46 764.1,-54.46 760.6,-64.46 767.6,-64.46"/>
</g>
<!-- m1&#45;&gt;QQQ -->
<g id="edge43" class="edge">
<title>m1&#45;&gt;QQQ</title>
<path fill="none" stroke="#777777" d="M1835.51,-459.18C1887.23,-483.43 1992.52,-532.79 2052.22,-560.78"/>
</g>
<!-- m1&#45;&gt;AAJ -->
<g id="edge44" class="edge">
<title>m1&#45;&gt;AAJ</title>
<path fill="none" stroke="black" d="M1774.75,-423.67C1741.53,-402.59 1687.54,-368.33 1646.49,-342.28"/>
<polygon fill="black" stroke="black" points="1648.49,-339.4 1638.17,-337 1644.74,-345.31 1648.49,-339.4"/>
</g>
<!-- m1&#45;&gt;AAL -->
<g id="edge45" class="edge">
<title>m1&#45;&gt;AAL</title>
<path fill="none" stroke="black" d="M1805.1,-422.5C1805.1,-402.74 1805.1,-372.22 1805.1,-347.44"/>
<polygon fill="black" stroke="black" points="1808.6,-347.68 1805.1,-337.68 1801.6,-347.68 1808.6,-347.68"/>
</g>
<!-- m1&#45;&gt;AAN -->
<g id="edge46" class="edge">
<title>m1&#45;&gt;AAN</title>
<path fill="none" stroke="black" d="M1835.55,-434.7C1918.45,-412.3 2149.03,-350.01 2255.25,-321.32"/>
<polygon fill="black" stroke="black" points="2255.84,-324.78 2264.58,-318.8 2254.02,-318.03 2255.84,-324.78"/>
</g>
<!-- m2&#45;&gt;AAK -->
<g id="edge48" class="edge">
<title>m2&#45;&gt;AAK</title>
<path fill="none" stroke="#777777" d="M1446.96,-178.38C1383.23,-198.58 1232.77,-246.28 1136.23,-276.88"/>
</g>
<!-- m2&#45;&gt;AAP -->
<g id="edge49" class="edge">
<title>m2&#45;&gt;AAP</title>
<path fill="none" stroke="black" d="M1494.02,-146.51C1510.93,-126.21 1537.34,-94.5 1558.19,-69.46"/>
<polygon fill="black" stroke="black" points="1560.64,-71.99 1564.35,-62.07 1555.26,-67.52 1560.64,-71.99"/>
</g>
<!-- m2&#45;&gt;AAQ -->
<g id="edge50" class="edge">
<title>m2&#45;&gt;AAQ</title>
<path fill="none" stroke="black" d="M1474.55,-146.51C1472.1,-126.92 1468.31,-96.7 1465.23,-72.11"/>
<polygon fill="black" stroke="black" points="1468.73,-71.9 1464.02,-62.41 1461.79,-72.77 1468.73,-71.9"/>
</g>
<!-- m3&#45;&gt;AAM -->
<g id="edge52" class="edge">
<title>m3&#45;&gt;AAM</title>
<path fill="none" stroke="#777777" d="M1948.92,-189.29C1963.14,-211.99 1986.22,-248.83 2002.45,-274.73"/>
</g>
<!-- m3&#45;&gt;AAR -->
<g id="edge53" class="edge">
<title>m3&#45;&gt;AAR</title>
<path fill="none" stroke="black" d="M1926.37,-146.51C1916.86,-126.66 1902.11,-95.88 1890.24,-71.11"/>
<polygon fill="black" stroke="black" points="1893.49,-69.78 1886.01,-62.27 1887.17,-72.8 1893.49,-69.78"/>
</g>
<!-- m3&#45;&gt;AAS -->
<g id="edge54" class="edge">
<title>m3&#45;&gt;AAS</title>
<path fill="none" stroke="black" d="M1945.83,-146.51C1955.34,-126.66 1970.09,-95.88 1981.96,-71.11"/>
<polygon fill="black" stroke="black" points="1985.03,-72.8 1986.19,-62.27 1978.71,-69.78 1985.03,-72.8"/>
</g>
<!-- m4&#45;&gt;AAO -->
<g id="edge56" class="edge">
<title>m4&#45;&gt;AAO</title>
<path fill="none" stroke="#777777" d="M2238.92,-189.24C2227.62,-214.39 2208.49,-256.93 2196.9,-282.7"/>
</g>
<!-- m4&#45;&gt;AAT -->
<g id="edge57" class="edge">
<title>m4&#45;&gt;AAT</title>
<path fill="none" stroke="black" d="M2243.31,-146.51C2238.17,-124.72 2229.93,-89.77 2223.86,-64.04"/>
<polygon fill="black" stroke="black" points="2227.29,-63.35 2221.59,-54.42 2220.48,-64.96 2227.29,-63.35"/>
</g>
<!-- m4&#45;&gt;AAU -->
<g id="edge58" class="edge">
<title>m4&#45;&gt;AAU</title>
<path fill="none" stroke="black" d="M2260.23,-146.51C2273.47,-124.32 2294.86,-88.5 2310.29,-62.66"/>
<polygon fill="black" stroke="black" points="2313.19,-64.63 2315.31,-54.25 2307.18,-61.04 2313.19,-64.63"/>
</g>
</g>
</svg>
